<?xml version="1.0" encoding="iso-8859-1"?>
<!-- Generator: Adobe Illustrator 19.0.0, SVG Export Plug-In . SVG Version: 6.00 Build 0)  -->
<svg version="1.1" id="Layer_1" xmlns="http://www.w3.org/2000/svg" xmlns:xlink="http://www.w3.org/1999/xlink" x="0px" y="0px"
	 viewBox="0 0 511.999 511.999" style="enable-background:new 0 0 511.999 511.999;" xml:space="preserve">
<path style="fill:#4BB8E6;" d="M473.044,139.133H283.832c-9.217,0-16.695-7.473-16.695-16.695s7.478-16.695,16.695-16.695h189.212
	c9.217,0,16.695,7.473,16.695,16.695S482.26,139.133,473.044,139.133z"/>
<g>
	<path style="fill:#54CCFF;" d="M228.181,139.133H38.97c-9.217,0-16.695-7.473-16.695-16.695s7.478-16.695,16.695-16.695h189.212
		c9.217,0,16.695,7.473,16.695,16.695S237.398,139.133,228.181,139.133z"/>
	<path style="fill:#54CCFF;" d="M16.71,272.695c-9.217,0-16.695-7.473-16.695-16.695V144.699c0-9.222,7.478-16.695,16.695-16.695
		s16.695,7.473,16.695,16.695V256C33.405,265.222,25.926,272.695,16.71,272.695z"/>
</g>
<path style="fill:#4BB8E6;" d="M495.304,272.695c-9.217,0-16.695-7.473-16.695-16.695V144.699c0-9.222,7.478-16.695,16.695-16.695
	s16.695,7.473,16.695,16.695V256C511.999,265.222,504.521,272.695,495.304,272.695z"/>
<path style="fill:#F9BC35;" d="M322.787,155.829c0,36.841-29.939,66.781-66.781,66.781s-66.781-29.94-66.781-66.781
	s29.939-66.781,66.781-66.781S322.787,118.988,322.787,155.829z"/>
<path style="fill:#F39E31;" d="M322.787,155.829c0,36.841-29.939,66.781-66.781,66.781V89.048
	C292.848,89.048,322.787,118.988,322.787,155.829z"/>
<path style="fill:#F9BC35;" d="M498.644,165.846l-159.16,117.979v122.431c0,9.238-7.456,16.695-16.695,16.695H189.227
	c-9.239,0-16.695-7.457-16.695-16.695V283.825L13.372,165.846c-15.026-11.24-17.586-32.277-6.678-46.746
	c10.797-14.469,31.721-17.919,46.748-6.678L183.664,222.61h144.691l130.222-110.188c15.138-11.353,35.95-7.68,46.747,6.678
	C516.34,133.791,513.446,154.716,498.644,165.846z"/>
<path style="fill:#F39E31;" d="M498.644,165.846l-159.16,117.979v122.431c0,9.238-7.456,16.695-16.695,16.695h-66.781V222.609
	h72.346l130.222-110.188c15.138-11.353,35.95-7.68,46.748,6.678C516.34,133.791,513.446,154.716,498.644,165.846z"/>
<g>
</g>
<g>
</g>
<g>
</g>
<g>
</g>
<g>
</g>
<g>
</g>
<g>
</g>
<g>
</g>
<g>
</g>
<g>
</g>
<g>
</g>
<g>
</g>
<g>
</g>
<g>
</g>
<g>
</g>
</svg>
