<svg id="svg" version="1.1" xmlns="http://www.w3.org/2000/svg" width="400"
     height="400" viewBox="0, 0, 400,400">
    <g id="svgg">
        <path id="path0"
              d="M143.600 125.466 C 119.401 127.855,101.170 144.661,98.762 166.799 C 97.510 178.303,101.908 196.311,108.841 208.070 C 109.479 209.151,110.000 210.177,110.000 210.351 C 110.000 211.002,116.764 221.597,120.375 226.600 C 132.885 243.937,149.102 261.255,175.809 285.800 C 178.442 288.220,181.858 291.381,183.398 292.824 C 186.063 295.320,194.145 302.712,198.075 306.246 L 199.905 307.893 207.453 301.091 C 275.106 240.124,297.563 210.166,301.224 176.000 C 304.166 148.540,281.066 125.215,250.914 125.202 C 228.636 125.192,214.845 133.860,202.035 155.923 C 199.995 159.437,199.929 159.426,197.390 155.170 C 183.405 131.728,167.749 123.083,143.600 125.466 "
              stroke="none" fill="#f9f9fa" fill-rule="evenodd"></path>
        <path id="path1"
              d="M337.200 53.725 C 337.200 53.794,337.785 54.379,338.500 55.025 L 339.800 56.200 338.625 54.900 C 337.530 53.688,337.200 53.416,337.200 53.725 M58.000 58.200 C 57.028 59.190,56.323 60.000,56.433 60.000 C 56.543 60.000,57.428 59.190,58.400 58.200 C 59.372 57.210,60.077 56.400,59.967 56.400 C 59.857 56.400,58.972 57.210,58.000 58.200 M54.575 61.700 L 53.400 63.000 54.700 61.825 C 55.912 60.730,56.184 60.400,55.875 60.400 C 55.806 60.400,55.221 60.985,54.575 61.700 M293.489 145.000 C 296.867 150.074,299.694 156.459,301.283 162.600 C 302.035 165.508,301.918 178.169,301.106 181.800 C 299.950 186.967,298.078 193.787,297.235 195.903 C 296.776 197.056,296.030 198.945,295.577 200.100 C 292.850 207.059,286.505 217.846,278.901 228.451 C 269.689 241.298,251.901 260.538,231.392 279.839 C 220.302 290.275,201.557 307.270,200.573 307.780 C 199.553 308.309,201.576 310.397,221.800 329.693 C 223.560 331.372,226.413 334.108,228.140 335.773 C 229.867 337.438,231.442 338.800,231.640 338.800 C 231.838 338.800,232.000 339.064,232.000 339.386 C 232.000 339.708,232.338 340.152,232.750 340.373 C 233.163 340.594,235.368 342.594,237.650 344.817 C 239.933 347.040,242.293 349.250,242.896 349.729 C 243.499 350.208,243.994 350.825,243.996 351.100 C 243.998 351.375,244.143 351.600,244.318 351.600 C 244.757 351.600,248.664 355.294,267.799 373.800 C 268.936 374.900,271.858 377.724,274.292 380.075 C 276.726 382.426,278.606 384.461,278.471 384.596 C 278.335 384.731,278.533 384.724,278.910 384.579 C 279.287 384.435,279.509 384.176,279.403 384.005 C 279.297 383.833,279.748 383.492,280.405 383.246 C 281.062 383.001,282.140 382.598,282.800 382.351 C 283.460 382.105,284.000 381.723,284.000 381.502 C 284.000 381.282,284.305 381.349,284.677 381.651 C 285.137 382.024,285.257 382.040,285.053 381.700 C 284.864 381.385,284.984 381.200,285.376 381.200 C 285.719 381.200,286.000 381.049,286.000 380.864 C 286.000 380.680,286.458 380.320,287.019 380.064 C 288.298 379.481,288.521 379.481,288.162 380.062 C 287.979 380.357,288.053 380.415,288.365 380.222 C 288.633 380.056,288.742 379.809,288.607 379.674 C 288.238 379.305,292.415 377.565,292.944 377.868 C 293.195 378.011,293.264 377.978,293.097 377.794 C 292.692 377.349,294.767 376.012,295.454 376.276 C 295.751 376.390,296.108 376.184,296.249 375.817 C 296.488 375.194,299.458 373.712,300.086 373.903 C 300.243 373.951,300.254 373.678,300.111 373.295 C 299.882 372.684,299.932 372.667,300.534 373.157 C 301.132 373.643,301.187 373.630,300.966 373.057 C 300.828 372.695,300.899 372.400,301.124 372.400 C 301.349 372.400,301.624 372.625,301.735 372.900 C 301.858 373.203,301.949 373.130,301.968 372.713 C 301.989 372.263,302.213 372.107,302.616 372.262 C 303.009 372.412,303.190 372.298,303.116 371.949 C 303.050 371.635,303.298 371.424,303.696 371.455 C 304.078 371.485,304.305 371.370,304.199 371.199 C 304.094 371.028,304.635 370.590,305.404 370.225 C 306.172 369.861,306.800 369.380,306.800 369.158 C 306.800 368.935,306.980 368.864,307.200 369.000 C 307.420 369.136,307.600 369.047,307.600 368.803 C 307.600 368.559,308.185 368.106,308.900 367.797 C 309.615 367.487,310.729 366.877,311.375 366.440 C 312.021 366.003,312.724 365.753,312.937 365.885 C 313.150 366.016,313.202 365.927,313.054 365.687 C 312.765 365.220,316.160 362.667,317.069 362.667 C 317.361 362.667,317.600 362.427,317.600 362.133 C 317.600 361.840,317.864 361.600,318.186 361.600 C 318.508 361.600,318.965 361.240,319.200 360.800 C 319.435 360.360,319.812 360.000,320.038 360.000 C 320.263 360.000,320.336 360.180,320.200 360.400 C 320.064 360.620,320.151 360.800,320.394 360.800 C 320.637 360.800,320.782 360.495,320.718 360.122 C 320.649 359.726,321.013 359.234,321.593 358.939 C 322.139 358.661,322.814 358.121,323.093 357.740 C 323.372 357.359,323.600 357.212,323.600 357.413 C 323.600 357.614,324.125 357.243,324.767 356.589 C 326.417 354.909,328.227 353.600,328.901 353.600 C 329.217 353.600,329.819 353.195,330.238 352.700 L 331.000 351.800 330.000 352.591 C 329.385 353.078,329.530 352.809,330.378 351.891 C 331.137 351.071,332.112 350.400,332.545 350.400 C 332.979 350.400,333.209 350.276,333.058 350.124 C 332.666 349.732,336.033 346.400,336.821 346.400 C 337.492 346.400,338.689 345.317,338.811 344.600 C 338.849 344.380,339.042 344.245,339.240 344.300 C 339.438 344.355,339.555 344.239,339.500 344.042 C 339.377 343.601,342.872 340.219,343.330 340.336 C 343.511 340.382,343.558 340.256,343.434 340.055 C 343.310 339.855,343.511 339.445,343.881 339.145 C 344.460 338.676,344.504 338.684,344.197 339.200 C 344.001 339.530,344.497 339.184,345.301 338.430 C 346.104 337.677,346.662 336.901,346.541 336.705 C 346.232 336.205,347.619 334.765,348.115 335.071 C 348.340 335.210,348.412 335.143,348.275 334.922 C 348.139 334.701,348.471 334.135,349.014 333.663 C 349.556 333.191,350.000 332.939,350.001 333.103 C 350.001 333.266,350.316 332.770,350.701 332.000 C 351.085 331.230,351.610 330.600,351.867 330.600 C 352.123 330.600,352.483 330.436,352.667 330.236 C 352.865 330.019,352.758 330.009,352.400 330.213 C 351.884 330.506,351.876 330.459,352.345 329.881 C 352.645 329.511,353.050 329.307,353.245 329.428 C 353.440 329.549,353.600 329.308,353.600 328.893 C 353.600 328.479,354.050 327.717,354.600 327.200 C 355.150 326.683,355.600 326.022,355.600 325.730 C 355.600 325.256,356.088 325.032,356.875 325.144 C 357.027 325.166,357.085 324.840,357.004 324.419 C 356.912 323.943,357.222 323.415,357.828 323.018 C 358.363 322.668,358.800 322.143,358.800 321.852 C 358.800 321.561,359.430 320.674,360.200 319.881 C 360.970 319.088,361.600 318.251,361.600 318.020 C 361.600 317.789,361.881 317.600,362.224 317.600 C 362.567 317.600,362.755 317.450,362.641 317.267 C 362.342 316.782,364.373 313.936,364.821 314.213 C 365.030 314.342,365.200 314.086,365.200 313.643 C 365.200 313.201,365.515 312.656,365.900 312.432 C 366.285 312.208,366.453 312.019,366.273 312.012 C 366.093 312.005,366.318 311.477,366.773 310.838 C 367.228 310.199,367.600 309.490,367.600 309.262 C 367.600 309.034,367.811 308.717,368.068 308.558 C 368.391 308.358,368.453 308.505,368.267 309.034 C 368.006 309.777,368.016 309.776,368.599 309.024 C 369.070 308.416,369.091 308.178,368.700 307.930 C 368.307 307.680,368.312 307.611,368.724 307.606 C 369.012 307.603,369.136 307.420,369.000 307.200 C 368.864 306.980,368.935 306.800,369.158 306.800 C 369.380 306.800,369.861 306.172,370.225 305.404 C 370.590 304.635,371.028 304.094,371.199 304.199 C 371.370 304.305,371.485 304.078,371.455 303.696 C 371.424 303.298,371.635 303.050,371.949 303.116 C 372.305 303.192,372.412 303.009,372.254 302.596 C 372.119 302.245,372.175 302.061,372.377 302.186 C 372.579 302.311,372.858 302.230,372.996 302.007 C 373.134 301.783,373.057 301.600,372.824 301.600 C 372.591 301.600,372.400 301.401,372.400 301.157 C 372.400 300.914,372.670 300.818,373.000 300.945 C 373.330 301.071,373.614 301.046,373.631 300.887 C 373.811 299.190,375.066 296.537,375.827 296.245 C 376.205 296.100,376.386 295.740,376.254 295.397 C 376.128 295.068,376.199 294.800,376.413 294.800 C 376.626 294.800,376.771 294.665,376.736 294.500 C 376.613 293.916,377.289 292.808,377.637 293.023 C 377.832 293.143,377.872 292.933,377.727 292.555 C 377.535 292.053,377.606 291.956,377.994 292.196 C 378.336 292.408,378.428 292.369,378.253 292.085 C 377.942 291.583,380.329 286.000,380.854 286.000 C 381.044 286.000,381.200 285.719,381.200 285.376 C 381.200 285.007,381.388 284.869,381.662 285.038 C 381.937 285.209,382.015 285.149,381.855 284.889 C 381.708 284.650,381.845 283.858,382.160 283.127 C 382.476 282.397,382.950 281.217,383.213 280.505 C 383.477 279.793,383.833 279.297,384.005 279.403 C 384.176 279.509,384.423 279.317,384.554 278.977 C 384.708 278.573,384.630 278.458,384.327 278.645 C 384.014 278.839,383.951 278.706,384.132 278.233 C 384.279 277.849,384.400 277.369,384.400 277.167 C 384.400 276.965,384.715 276.797,385.100 276.794 C 385.698 276.789,385.713 276.731,385.200 276.400 C 384.870 276.187,384.802 276.009,385.048 276.006 C 385.294 276.003,385.723 275.190,386.000 274.200 C 386.277 273.210,386.641 272.400,386.808 272.400 C 386.975 272.400,387.095 272.175,387.075 271.900 C 387.008 270.952,388.096 267.600,388.471 267.600 C 388.678 267.600,388.736 267.420,388.600 267.200 C 388.464 266.980,388.543 266.800,388.776 266.800 C 389.009 266.800,389.200 266.440,389.200 266.000 C 389.200 265.560,389.391 265.200,389.624 265.200 C 389.857 265.200,389.960 265.059,389.854 264.887 C 389.748 264.715,390.173 262.780,390.798 260.587 C 391.424 258.394,391.963 256.960,391.996 257.400 L 392.056 258.200 392.374 257.400 C 392.549 256.960,392.537 256.540,392.346 256.467 C 391.872 256.284,391.907 255.200,392.387 255.200 C 392.601 255.200,392.680 254.953,392.564 254.652 C 392.449 254.350,392.655 253.988,393.022 253.847 C 393.594 253.627,393.612 253.495,393.145 252.930 C 392.719 252.414,392.709 252.233,393.101 252.101 C 393.376 252.009,393.715 251.224,393.853 250.358 C 393.992 249.491,394.264 248.684,394.459 248.563 C 394.654 248.443,394.729 248.209,394.627 248.043 C 394.524 247.878,394.705 246.495,395.028 244.971 L 395.616 242.200 393.108 239.846 C 391.728 238.551,386.556 233.601,381.613 228.846 C 376.670 224.091,370.377 218.040,367.629 215.400 C 364.881 212.760,361.885 209.880,360.972 209.000 C 360.059 208.120,356.459 204.700,352.972 201.400 C 349.486 198.100,344.991 193.780,342.983 191.800 C 340.974 189.820,338.447 187.409,337.366 186.442 C 336.285 185.475,333.236 182.595,330.591 180.042 C 327.946 177.489,323.984 173.690,321.786 171.600 C 319.588 169.510,313.846 164.020,309.026 159.400 C 304.206 154.780,299.599 150.370,298.788 149.600 C 297.978 148.830,296.274 147.210,295.002 146.000 C 293.444 144.517,292.951 144.191,293.489 145.000 M57.983 341.700 C 59.641 343.466,60.000 343.784,60.000 343.483 C 60.000 343.419,59.145 342.564,58.100 341.583 L 56.200 339.800 57.983 341.700 "
              stroke="none" fill="#0c548c" fill-rule="evenodd"></path>
        <path id="path2"
              d="M180.223 0.636 C 173.822 1.217,163.497 2.616,161.200 3.212 C 160.430 3.412,159.440 3.644,159.000 3.728 C 158.560 3.811,157.930 3.979,157.600 4.100 C 157.270 4.221,154.030 4.987,150.400 5.802 C 146.770 6.617,143.499 7.443,143.130 7.639 C 142.762 7.835,140.332 8.628,137.730 9.401 C 135.129 10.174,132.687 10.984,132.305 11.203 C 131.923 11.421,131.248 11.600,130.805 11.600 C 130.362 11.600,130.000 11.780,130.000 12.000 C 130.000 12.220,129.806 12.400,129.570 12.400 C 128.966 12.400,120.643 15.664,120.400 15.997 C 120.290 16.147,119.840 16.376,119.400 16.505 C 117.824 16.967,113.381 18.915,112.400 19.573 C 111.850 19.942,110.050 20.850,108.400 21.591 C 106.750 22.332,105.340 23.087,105.267 23.269 C 105.193 23.451,104.995 23.600,104.825 23.600 C 104.656 23.600,103.006 24.498,101.159 25.595 C 99.311 26.693,97.350 27.814,96.800 28.087 C 96.250 28.360,95.710 28.677,95.600 28.792 C 95.421 28.978,94.095 29.739,91.800 30.971 C 91.360 31.207,90.898 31.537,90.773 31.705 C 90.420 32.180,85.123 35.600,84.741 35.600 C 84.553 35.600,84.400 35.775,84.400 35.990 C 84.400 36.204,83.905 36.637,83.300 36.952 C 82.695 37.266,81.810 37.856,81.334 38.262 C 78.957 40.287,76.135 42.400,75.808 42.400 C 75.672 42.400,75.165 42.805,74.681 43.300 C 74.196 43.795,72.810 45.005,71.600 45.989 C 70.390 46.972,69.165 48.097,68.877 48.489 C 68.590 48.880,68.201 49.200,68.013 49.200 C 67.596 49.200,63.526 53.063,57.506 59.174 C 55.028 61.689,52.145 64.604,51.100 65.651 C 50.055 66.698,49.200 67.701,49.200 67.879 C 49.200 68.057,48.651 68.721,47.980 69.354 C 47.310 69.987,46.283 71.156,45.700 71.952 C 45.116 72.749,44.135 73.885,43.520 74.477 C 42.904 75.070,42.400 75.667,42.400 75.804 C 42.400 76.120,40.446 78.783,39.562 79.672 C 39.194 80.042,38.302 81.257,37.579 82.372 C 36.857 83.487,36.116 84.400,35.933 84.400 C 35.750 84.400,35.600 84.553,35.600 84.741 C 35.600 85.123,32.180 90.420,31.705 90.773 C 31.434 90.975,30.833 91.986,29.429 94.600 C 29.193 95.040,28.906 95.490,28.792 95.600 C 28.677 95.710,28.360 96.250,28.086 96.800 C 27.813 97.350,27.024 98.700,26.334 99.800 C 25.644 100.900,23.825 104.230,22.291 107.200 C 20.758 110.170,19.268 113.050,18.979 113.600 C 17.965 115.529,16.400 119.302,16.400 119.815 C 16.400 120.100,16.248 120.393,16.062 120.467 C 15.707 120.607,12.400 128.828,12.400 129.570 C 12.400 129.806,12.220 130.000,12.000 130.000 C 11.780 130.000,11.600 130.362,11.600 130.805 C 11.600 131.248,11.421 131.923,11.203 132.305 C 10.984 132.687,10.174 135.129,9.401 137.730 C 8.628 140.332,7.835 142.762,7.639 143.130 C 7.443 143.499,6.617 146.770,5.802 150.400 C 4.987 154.030,4.221 157.270,4.100 157.600 C 3.825 158.347,3.831 158.322,3.065 162.200 C -1.085 183.213,-1.085 216.787,3.065 237.800 C 3.412 239.560,3.725 241.180,3.760 241.400 C 3.794 241.620,3.929 241.980,4.059 242.200 C 4.189 242.420,4.419 243.320,4.571 244.200 C 5.069 247.086,7.215 255.770,7.785 257.200 C 8.091 257.970,9.113 261.120,10.056 264.200 C 10.999 267.280,11.884 269.890,12.023 270.000 C 12.163 270.110,13.052 272.270,14.000 274.800 C 14.948 277.330,15.876 279.460,16.062 279.533 C 16.248 279.607,16.400 279.976,16.400 280.353 C 16.400 280.731,16.558 281.211,16.751 281.420 C 16.943 281.629,17.492 282.864,17.969 284.164 C 18.446 285.464,19.149 286.994,19.532 287.564 C 19.914 288.134,20.755 289.770,21.400 291.200 C 22.574 293.802,25.403 298.840,27.799 302.600 C 28.500 303.700,29.597 305.590,30.237 306.800 C 30.877 308.010,31.602 309.180,31.850 309.400 C 32.506 309.984,35.600 314.792,35.600 315.228 C 35.600 315.433,35.765 315.600,35.966 315.600 C 36.167 315.600,36.866 316.455,37.518 317.500 C 38.171 318.545,39.042 319.761,39.453 320.202 C 39.864 320.642,41.010 322.082,42.000 323.402 C 42.990 324.721,43.989 325.980,44.220 326.200 C 44.452 326.420,45.321 327.458,46.153 328.507 C 48.377 331.312,48.855 331.818,58.140 341.200 C 67.998 351.160,69.085 352.131,79.200 360.018 C 82.017 362.215,86.462 365.380,88.460 366.613 C 89.417 367.204,90.380 367.892,90.600 368.143 C 90.820 368.395,91.990 369.126,93.200 369.769 C 94.410 370.411,95.490 371.041,95.600 371.169 C 95.710 371.296,96.340 371.702,97.000 372.071 C 97.660 372.441,99.550 373.518,101.200 374.464 C 102.850 375.411,104.342 376.189,104.515 376.193 C 104.688 376.197,104.958 376.380,105.115 376.600 C 105.272 376.820,106.750 377.625,108.400 378.389 C 110.050 379.153,111.850 380.066,112.400 380.419 C 112.950 380.772,114.930 381.675,116.800 382.426 C 118.670 383.177,120.310 383.944,120.445 384.130 C 120.579 384.316,120.759 384.436,120.845 384.397 C 120.930 384.358,121.450 384.520,122.000 384.756 C 126.182 386.555,135.088 389.803,138.668 390.834 C 141.051 391.520,143.180 392.225,143.400 392.401 C 143.620 392.577,146.770 393.386,150.400 394.200 C 154.030 395.014,157.270 395.779,157.600 395.900 C 157.930 396.022,158.447 396.171,158.748 396.232 C 159.050 396.293,160.130 396.537,161.148 396.774 C 162.167 397.010,165.430 397.552,168.400 397.976 C 188.605 400.867,216.813 400.605,235.358 397.354 C 241.034 396.359,241.303 396.304,242.400 395.900 C 242.730 395.779,245.920 395.024,249.488 394.222 C 253.056 393.421,256.476 392.504,257.088 392.185 C 257.700 391.866,258.402 391.604,258.649 391.602 C 259.318 391.599,269.336 388.367,269.800 388.005 C 270.020 387.833,271.460 387.237,273.000 386.680 C 274.540 386.122,276.468 385.382,277.285 385.034 L 278.770 384.402 274.319 380.101 C 271.870 377.735,268.936 374.900,267.799 373.800 C 248.664 355.294,244.757 351.600,244.318 351.600 C 244.143 351.600,243.998 351.375,243.996 351.100 C 243.994 350.825,243.499 350.208,242.896 349.729 C 242.293 349.250,239.933 347.040,237.650 344.817 C 235.368 342.594,233.163 340.594,232.750 340.373 C 232.338 340.152,232.000 339.708,232.000 339.386 C 232.000 339.064,231.833 338.800,231.628 338.800 C 231.424 338.800,228.868 336.505,225.949 333.700 C 223.029 330.895,218.206 326.260,215.229 323.400 C 212.253 320.540,206.664 315.116,202.809 311.346 C 198.954 307.577,195.087 303.887,194.215 303.146 C 193.344 302.406,192.344 301.530,191.992 301.200 C 190.340 299.648,181.653 291.655,176.800 287.221 C 163.448 275.023,150.485 262.302,140.908 252.000 C 105.348 213.746,91.565 180.428,100.966 155.451 C 106.492 140.770,122.037 128.613,139.200 125.548 C 143.212 124.832,157.753 124.815,161.000 125.523 C 177.409 129.101,187.903 137.780,198.698 156.700 C 199.748 158.540,200.172 158.772,200.572 157.729 C 202.490 152.730,212.773 139.593,218.275 135.112 C 235.433 121.139,264.516 121.269,283.400 135.403 C 285.973 137.329,292.536 143.452,292.301 143.708 C 292.245 143.769,292.713 144.444,293.341 145.209 C 294.491 146.612,294.415 146.085,293.252 144.600 C 292.410 143.523,294.886 145.846,309.026 159.400 C 313.846 164.020,319.588 169.510,321.786 171.600 C 323.984 173.690,327.946 177.489,330.591 180.042 C 333.236 182.595,336.285 185.475,337.366 186.442 C 338.447 187.409,340.974 189.820,342.983 191.800 C 344.991 193.780,349.486 198.100,352.972 201.400 C 356.459 204.700,360.059 208.120,360.972 209.000 C 361.885 209.880,364.881 212.760,367.629 215.400 C 370.377 218.040,376.670 224.093,381.613 228.852 C 395.632 242.347,395.974 242.640,396.282 241.400 C 400.950 222.602,401.202 181.882,396.777 161.267 C 396.525 160.094,396.288 158.924,396.248 158.667 C 396.209 158.410,396.071 158.020,395.941 157.800 C 395.811 157.580,395.581 156.680,395.429 155.800 C 394.901 152.740,392.752 144.192,392.211 143.000 C 391.911 142.340,391.386 140.720,391.043 139.400 C 389.944 135.167,385.219 122.408,384.365 121.363 C 384.168 121.123,384.125 120.808,384.270 120.663 C 384.415 120.518,384.323 120.400,384.067 120.400 C 383.810 120.400,383.600 120.173,383.600 119.896 C 383.600 119.353,381.330 114.040,380.398 112.400 C 380.085 111.850,379.160 109.979,378.343 108.241 C 377.526 106.504,376.649 104.954,376.395 104.797 C 376.140 104.639,375.984 104.441,376.049 104.355 C 376.114 104.270,375.396 102.850,374.455 101.200 C 373.513 99.550,372.441 97.660,372.071 97.000 C 371.702 96.340,371.292 95.710,371.160 95.600 C 371.028 95.490,370.693 94.950,370.416 94.400 C 369.985 93.547,368.305 91.012,362.990 83.200 C 362.467 82.430,361.399 80.990,360.617 80.000 C 359.836 79.010,358.007 76.670,356.553 74.800 C 355.099 72.930,353.164 70.577,352.254 69.571 C 351.345 68.565,349.430 66.432,348.000 64.831 C 346.570 63.230,343.425 60.003,341.011 57.660 C 338.597 55.317,335.664 52.455,334.494 51.300 C 333.324 50.145,332.204 49.200,332.006 49.200 C 331.808 49.200,331.410 48.874,331.123 48.476 C 330.835 48.078,329.700 47.041,328.600 46.171 C 327.500 45.302,326.240 44.283,325.800 43.908 C 323.743 42.153,318.313 38.012,317.030 37.219 C 316.244 36.733,315.600 36.169,315.600 35.967 C 315.600 35.765,315.433 35.600,315.228 35.600 C 314.792 35.600,309.984 32.506,309.400 31.850 C 309.180 31.602,308.280 31.013,307.400 30.540 C 303.812 28.611,302.571 27.895,302.000 27.422 C 301.043 26.629,294.043 22.718,291.200 21.387 C 289.770 20.718,287.970 19.825,287.200 19.403 C 285.601 18.525,281.789 16.851,280.600 16.504 C 280.160 16.375,279.710 16.147,279.600 15.997 C 279.490 15.846,277.330 14.948,274.800 14.000 C 272.270 13.052,270.110 12.161,270.000 12.019 C 269.890 11.878,267.910 11.174,265.600 10.455 C 263.290 9.736,260.320 8.795,259.000 8.363 C 255.724 7.290,250.058 5.803,246.200 5.003 C 244.440 4.638,242.730 4.236,242.400 4.109 C 241.661 3.826,241.711 3.837,237.800 3.065 C 223.367 0.215,197.079 -0.894,180.223 0.636 M300.880 162.200 C 300.880 162.640,301.024 163.450,301.200 164.000 C 301.454 164.792,301.520 164.833,301.520 164.200 C 301.520 163.760,301.376 162.950,301.200 162.400 C 300.946 161.608,300.880 161.567,300.880 162.200 M301.701 175.400 C 301.705 176.280,301.787 176.593,301.883 176.095 C 301.979 175.598,301.975 174.878,301.875 174.495 C 301.775 174.113,301.696 174.520,301.701 175.400 M301.000 180.000 C 300.845 181.128,300.802 182.136,300.906 182.239 C 301.009 182.342,301.216 181.500,301.367 180.367 C 301.517 179.234,301.559 178.226,301.461 178.128 C 301.363 178.029,301.155 178.872,301.000 180.000 M296.844 196.044 C 296.598 196.751,296.466 197.400,296.552 197.485 C 296.638 197.571,296.909 197.062,297.156 196.356 C 297.402 195.649,297.534 195.000,297.448 194.915 C 297.362 194.829,297.091 195.338,296.844 196.044 M292.600 206.000 C 292.259 206.660,292.069 207.200,292.179 207.200 C 292.289 207.200,292.659 206.660,293.000 206.000 C 293.341 205.340,293.531 204.800,293.421 204.800 C 293.311 204.800,292.941 205.340,292.600 206.000 M273.759 234.900 C 272.007 236.921,271.487 237.600,271.690 237.600 C 271.807 237.600,272.567 236.790,273.379 235.800 C 274.881 233.966,275.179 233.263,273.759 234.900 M395.022 244.622 C 394.872 245.425,394.828 246.162,394.926 246.260 C 395.024 246.357,395.227 245.781,395.378 244.978 C 395.528 244.175,395.572 243.438,395.474 243.340 C 395.376 243.243,395.173 243.819,395.022 244.622 M257.178 253.900 L 255.800 255.400 257.300 254.022 C 258.696 252.738,258.984 252.400,258.678 252.400 C 258.612 252.400,257.937 253.075,257.178 253.900 M392.000 255.800 C 392.000 256.130,392.180 256.400,392.400 256.400 C 392.620 256.400,392.800 256.130,392.800 255.800 C 392.800 255.470,392.620 255.200,392.400 255.200 C 392.180 255.200,392.000 255.470,392.000 255.800 M390.650 260.850 C 390.509 261.553,390.469 262.202,390.559 262.292 C 390.650 262.383,390.848 261.891,391.000 261.200 C 391.152 260.509,391.193 259.859,391.091 259.758 C 390.989 259.656,390.791 260.147,390.650 260.850 M249.381 262.100 L 247.800 263.800 249.500 262.219 C 250.435 261.349,251.200 260.584,251.200 260.519 C 251.200 260.216,250.852 260.519,249.381 262.100 M245.600 265.800 C 244.628 266.790,243.923 267.600,244.033 267.600 C 244.143 267.600,245.028 266.790,246.000 265.800 C 246.972 264.810,247.677 264.000,247.567 264.000 C 247.457 264.000,246.572 264.810,245.600 265.800 M388.579 267.166 C 388.703 267.367,388.637 267.592,388.432 267.666 C 388.227 267.740,387.931 268.340,387.773 269.000 C 387.616 269.660,387.618 270.080,387.777 269.933 C 387.936 269.787,388.073 269.517,388.081 269.333 C 388.088 269.150,388.343 268.645,388.647 268.211 C 389.309 267.267,389.351 266.800,388.776 266.800 C 388.543 266.800,388.455 266.965,388.579 267.166 M241.781 269.700 L 240.200 271.400 241.900 269.819 C 242.835 268.949,243.600 268.184,243.600 268.119 C 243.600 267.816,243.252 268.119,241.781 269.700 M233.578 277.500 L 232.200 279.000 233.700 277.622 C 235.096 276.338,235.384 276.000,235.078 276.000 C 235.012 276.000,234.337 276.675,233.578 277.500 M384.400 277.167 C 384.400 277.369,384.295 277.864,384.167 278.267 C 383.954 278.938,383.988 278.934,384.567 278.224 C 385.292 277.334,385.379 276.800,384.800 276.800 C 384.580 276.800,384.400 276.965,384.400 277.167 M383.000 280.800 C 382.850 281.273,382.817 281.750,382.927 281.860 C 383.037 281.970,383.250 281.673,383.400 281.200 C 383.550 280.727,383.583 280.250,383.473 280.140 C 383.363 280.030,383.150 280.327,383.000 280.800 M226.585 284.100 L 224.600 286.200 226.700 284.215 C 227.855 283.123,228.800 282.178,228.800 282.115 C 228.800 281.817,228.429 282.149,226.585 284.100 M381.383 284.870 C 381.223 285.381,380.951 285.892,380.777 286.004 C 380.446 286.219,376.965 293.545,376.904 294.155 C 376.884 294.351,376.628 294.663,376.334 294.849 C 376.019 295.049,375.984 295.190,376.247 295.194 C 376.742 295.201,382.209 284.476,381.879 284.146 C 381.766 284.033,381.542 284.358,381.383 284.870 M221.578 288.700 L 220.200 290.200 221.700 288.822 C 223.096 287.538,223.384 287.200,223.078 287.200 C 223.012 287.200,222.337 287.875,221.578 288.700 M216.575 293.300 L 215.400 294.600 216.700 293.425 C 217.415 292.779,218.000 292.194,218.000 292.125 C 218.000 291.816,217.670 292.088,216.575 293.300 M211.978 297.500 L 210.600 299.000 212.100 297.622 C 212.925 296.863,213.600 296.188,213.600 296.122 C 213.600 295.816,213.262 296.104,211.978 297.500 M374.799 297.402 C 374.566 298.014,374.281 298.669,374.164 298.858 C 374.048 299.046,374.049 299.200,374.166 299.200 C 374.515 299.200,375.678 296.744,375.441 296.507 C 375.321 296.387,375.032 296.790,374.799 297.402 M207.781 301.300 L 206.200 303.000 207.900 301.419 C 209.481 299.948,209.784 299.600,209.481 299.600 C 209.416 299.600,208.651 300.365,207.781 301.300 M370.823 304.250 C 370.353 305.048,370.033 305.766,370.113 305.846 C 370.192 305.926,370.661 305.273,371.154 304.396 C 372.275 302.402,371.988 302.277,370.823 304.250 M203.385 305.300 L 201.400 307.400 203.500 305.415 C 205.451 303.571,205.783 303.200,205.485 303.200 C 205.422 303.200,204.477 304.145,203.385 305.300 M369.200 306.800 C 368.870 307.013,368.780 307.193,369.000 307.200 C 369.220 307.207,369.130 307.387,368.800 307.600 C 368.423 307.844,368.381 307.990,368.686 307.994 C 368.953 307.997,369.365 307.640,369.600 307.200 C 370.084 306.296,370.043 306.255,369.200 306.800 M363.709 315.077 C 362.672 316.574,362.177 317.606,362.978 316.600 C 363.328 316.160,363.895 315.468,364.236 315.062 C 364.578 314.656,364.774 314.241,364.672 314.139 C 364.571 314.037,364.137 314.459,363.709 315.077 M359.977 320.089 C 358.913 321.254,358.519 322.000,358.966 322.000 C 359.058 322.000,359.703 321.280,360.400 320.400 C 361.918 318.483,361.635 318.275,359.977 320.089 M357.800 323.030 C 357.360 323.362,357.000 323.821,357.000 324.049 C 357.000 324.278,356.653 324.718,356.229 325.028 C 355.805 325.338,355.582 325.715,355.733 325.867 C 356.010 326.144,357.600 324.680,357.600 324.148 C 357.600 323.991,357.898 323.534,358.262 323.131 C 359.060 322.250,358.884 322.211,357.800 323.030 M354.401 327.398 C 353.886 327.948,353.552 328.485,353.660 328.594 C 353.768 328.702,354.254 328.252,354.740 327.595 C 355.817 326.139,355.666 326.052,354.401 327.398 M351.771 330.503 L 350.600 331.797 351.800 330.799 C 352.460 330.249,353.075 329.755,353.167 329.700 C 353.258 329.645,353.245 329.512,353.138 329.404 C 353.030 329.296,352.415 329.791,351.771 330.503 M348.098 334.543 C 347.162 335.455,346.397 336.332,346.398 336.493 C 346.399 336.655,347.241 335.981,348.269 334.996 C 349.297 334.011,350.062 333.133,349.969 333.046 C 349.876 332.958,349.034 333.632,348.098 334.543 M341.247 341.820 C 339.623 343.459,338.380 344.800,338.483 344.800 C 338.732 344.800,342.839 340.849,343.784 339.700 C 345.145 338.045,344.227 338.813,341.247 341.820 M334.400 348.200 C 333.428 349.190,332.819 350.000,333.045 350.000 C 333.271 350.000,334.184 349.190,335.073 348.200 C 335.963 347.210,336.573 346.400,336.429 346.400 C 336.285 346.400,335.372 347.210,334.400 348.200 M330.378 351.900 L 329.000 353.400 330.400 352.149 C 331.170 351.461,332.070 350.800,332.400 350.681 C 332.919 350.492,332.916 350.459,332.378 350.432 C 332.037 350.414,331.137 351.075,330.378 351.900 M327.000 354.596 C 325.110 356.126,323.979 357.312,324.200 357.534 C 324.312 357.645,325.078 357.076,325.902 356.269 C 326.726 355.462,327.760 354.537,328.200 354.213 C 328.640 353.890,328.820 353.625,328.600 353.625 C 328.380 353.625,327.660 354.062,327.000 354.596 M320.089 359.977 C 319.380 360.625,318.800 361.286,318.800 361.447 C 318.800 361.608,319.218 361.346,319.730 360.866 C 320.241 360.386,320.743 360.076,320.845 360.178 C 320.947 360.280,321.250 360.012,321.519 359.582 C 322.230 358.442,321.570 358.625,320.089 359.977 M314.995 363.782 C 313.898 364.541,312.550 365.553,312.000 366.029 L 311.000 366.895 312.200 366.192 C 313.494 365.435,317.200 362.711,317.200 362.518 C 317.200 362.283,316.957 362.423,314.995 363.782 M308.033 368.367 C 307.612 368.788,307.184 369.051,307.083 368.949 C 306.982 368.848,306.789 369.052,306.654 369.402 C 306.380 370.118,308.451 369.091,309.280 368.100 C 309.974 367.270,308.900 367.500,308.033 368.367 M304.297 370.766 C 302.698 371.791,302.403 372.206,303.800 371.466 C 305.476 370.577,306.271 370.008,305.800 370.035 C 305.580 370.048,304.904 370.377,304.297 370.766 M300.800 372.824 C 300.800 373.057,300.639 373.148,300.442 373.026 C 300.245 372.904,299.984 373.066,299.861 373.385 C 299.677 373.865,299.808 373.888,300.619 373.518 C 301.602 373.071,301.950 372.400,301.200 372.400 C 300.980 372.400,300.800 372.591,300.800 372.824 M297.653 374.653 C 296.913 374.976,296.401 375.334,296.516 375.450 C 296.737 375.671,299.200 374.515,299.200 374.190 C 299.200 373.963,299.313 373.929,297.653 374.653 M290.800 378.216 C 288.490 379.375,286.370 380.531,286.089 380.787 C 285.809 381.042,285.224 381.278,284.789 381.311 C 284.116 381.362,283.590 382.000,284.222 382.000 C 284.496 382.000,287.580 380.526,288.400 380.003 C 288.730 379.793,290.395 378.968,292.100 378.170 C 293.805 377.371,295.200 376.557,295.200 376.359 C 295.200 376.162,295.155 376.025,295.100 376.055 C 295.045 376.086,293.110 377.058,290.800 378.216 M280.400 383.200 C 279.867 383.545,279.867 383.588,280.400 383.588 C 280.730 383.588,281.270 383.413,281.600 383.200 C 282.133 382.855,282.133 382.812,281.600 382.812 C 281.270 382.812,280.730 382.987,280.400 383.200 "
              stroke="none" fill="#1464ab" fill-rule="evenodd"></path>
        <path id="path3"
              d="M148.100 125.096 C 149.365 125.175,151.435 125.175,152.700 125.096 C 153.965 125.016,152.930 124.951,150.400 124.951 C 147.870 124.951,146.835 125.016,148.100 125.096 M248.300 125.096 C 249.675 125.174,251.925 125.174,253.300 125.096 C 254.675 125.018,253.550 124.954,250.800 124.954 C 248.050 124.954,246.925 125.018,248.300 125.096 M142.705 125.483 C 143.202 125.579,143.922 125.575,144.305 125.475 C 144.687 125.375,144.280 125.296,143.400 125.301 C 142.520 125.305,142.207 125.387,142.705 125.483 M242.900 125.476 C 243.285 125.576,243.915 125.576,244.300 125.476 C 244.685 125.375,244.370 125.293,243.600 125.293 C 242.830 125.293,242.515 125.375,242.900 125.476 M110.985 140.500 L 109.000 142.600 111.100 140.615 C 113.051 138.771,113.383 138.400,113.085 138.400 C 113.022 138.400,112.077 139.345,110.985 140.500 M288.800 140.525 C 288.800 140.594,289.385 141.179,290.100 141.825 L 291.400 143.000 290.225 141.700 C 289.130 140.488,288.800 140.216,288.800 140.525 M294.465 201.017 C 293.795 202.488,293.923 202.802,294.647 201.465 C 294.986 200.840,295.188 200.254,295.096 200.163 C 295.005 200.071,294.721 200.456,294.465 201.017 M108.640 208.402 C 109.239 209.503,109.793 210.340,109.871 210.263 C 110.043 210.090,108.008 206.400,107.741 206.400 C 107.636 206.400,108.040 207.301,108.640 208.402 M261.375 248.900 L 260.200 250.200 261.500 249.025 C 262.712 247.930,262.984 247.600,262.675 247.600 C 262.606 247.600,262.021 248.185,261.375 248.900 M141.400 252.400 C 142.483 253.500,143.460 254.400,143.570 254.400 C 143.680 254.400,142.883 253.500,141.800 252.400 C 140.717 251.300,139.740 250.400,139.630 250.400 C 139.520 250.400,140.317 251.300,141.400 252.400 M146.000 257.310 C 146.000 257.371,147.395 258.766,149.100 260.410 L 152.200 263.400 149.210 260.300 C 146.433 257.421,146.000 257.017,146.000 257.310 M245.800 265.200 C 243.167 267.840,241.103 270.000,241.213 270.000 C 241.323 270.000,243.567 267.840,246.200 265.200 C 248.833 262.560,250.897 260.400,250.787 260.400 C 250.677 260.400,248.433 262.560,245.800 265.200 M154.200 265.600 C 155.059 266.480,155.852 267.200,155.962 267.200 C 156.072 267.200,155.459 266.480,154.600 265.600 C 153.741 264.720,152.948 264.000,152.838 264.000 C 152.728 264.000,153.341 264.720,154.200 265.600 M158.200 269.600 C 159.283 270.700,160.260 271.600,160.370 271.600 C 160.480 271.600,159.683 270.700,158.600 269.600 C 157.517 268.500,156.540 267.600,156.430 267.600 C 156.320 267.600,157.117 268.500,158.200 269.600 M166.783 277.700 C 168.441 279.466,168.800 279.784,168.800 279.483 C 168.800 279.419,167.945 278.564,166.900 277.583 L 165.000 275.800 166.783 277.700 M232.585 278.100 L 230.600 280.200 232.700 278.215 C 233.855 277.123,234.800 276.178,234.800 276.115 C 234.800 275.817,234.429 276.149,232.585 278.100 M172.000 282.600 C 172.746 283.370,173.447 284.000,173.557 284.000 C 173.667 284.000,173.146 283.370,172.400 282.600 C 171.654 281.830,170.953 281.200,170.843 281.200 C 170.733 281.200,171.254 281.830,172.000 282.600 M227.381 282.900 L 225.800 284.600 227.500 283.019 C 229.081 281.548,229.384 281.200,229.081 281.200 C 229.016 281.200,228.251 281.965,227.381 282.900 M221.775 288.100 L 220.600 289.400 221.900 288.225 C 222.615 287.579,223.200 286.994,223.200 286.925 C 223.200 286.616,222.870 286.888,221.775 288.100 M180.800 290.525 C 180.800 290.594,181.385 291.179,182.100 291.825 L 183.400 293.000 182.225 291.700 C 181.130 290.488,180.800 290.216,180.800 290.525 M208.975 299.700 L 207.800 301.000 209.100 299.825 C 209.815 299.179,210.400 298.594,210.400 298.525 C 210.400 298.216,210.070 298.488,208.975 299.700 M204.575 303.700 L 203.400 305.000 204.700 303.825 C 205.415 303.179,206.000 302.594,206.000 302.525 C 206.000 302.216,205.670 302.488,204.575 303.700 "
              stroke="none" fill="#a4c4dc" fill-rule="evenodd"></path>
        <path id="path4"
              d="M214.388 138.700 L 211.800 141.400 214.500 138.812 C 215.985 137.388,217.200 136.173,217.200 136.112 C 217.200 135.817,216.793 136.192,214.388 138.700 M98.493 165.200 C 98.493 165.970,98.575 166.285,98.676 165.900 C 98.776 165.515,98.776 164.885,98.676 164.500 C 98.575 164.115,98.493 164.430,98.493 165.200 M98.144 171.200 C 98.144 173.290,98.212 174.145,98.294 173.100 C 98.376 172.055,98.376 170.345,98.294 169.300 C 98.212 168.255,98.144 169.110,98.144 171.200 M301.737 171.000 C 301.739 172.760,301.809 173.430,301.893 172.489 C 301.978 171.549,301.977 170.109,301.891 169.289 C 301.805 168.470,301.736 169.240,301.737 171.000 M98.380 177.310 C 98.575 178.958,98.583 178.967,98.719 177.649 C 98.796 176.906,98.706 176.146,98.520 175.960 C 98.333 175.773,98.271 176.381,98.380 177.310 M301.293 176.800 C 301.293 177.570,301.375 177.885,301.476 177.500 C 301.576 177.115,301.576 176.485,301.476 176.100 C 301.375 175.715,301.293 176.030,301.293 176.800 M134.000 244.525 C 134.000 244.594,134.585 245.179,135.300 245.825 L 136.600 247.000 135.425 245.700 C 134.330 244.488,134.000 244.216,134.000 244.525 M137.200 248.125 C 137.200 248.194,137.785 248.779,138.500 249.425 L 139.800 250.600 138.625 249.300 C 137.530 248.088,137.200 247.816,137.200 248.125 M260.175 250.500 L 259.000 251.800 260.300 250.625 C 261.512 249.530,261.784 249.200,261.475 249.200 C 261.406 249.200,260.821 249.785,260.175 250.500 M143.600 255.000 C 144.795 256.210,145.863 257.200,145.973 257.200 C 146.083 257.200,145.195 256.210,144.000 255.000 C 142.805 253.790,141.737 252.800,141.627 252.800 C 141.517 252.800,142.405 253.790,143.600 255.000 M253.188 257.900 L 250.600 260.600 253.300 258.012 C 254.785 256.588,256.000 255.373,256.000 255.312 C 256.000 255.017,255.593 255.392,253.188 257.900 M152.800 264.525 C 152.800 264.594,153.385 265.179,154.100 265.825 L 155.400 267.000 154.225 265.700 C 153.130 264.488,152.800 264.216,152.800 264.525 M238.000 273.000 C 236.361 274.650,235.110 276.000,235.220 276.000 C 235.330 276.000,236.761 274.650,238.400 273.000 C 240.039 271.350,241.290 270.000,241.180 270.000 C 241.070 270.000,239.639 271.350,238.000 273.000 M161.800 273.200 C 162.659 274.080,163.452 274.800,163.562 274.800 C 163.672 274.800,163.059 274.080,162.200 273.200 C 161.341 272.320,160.548 271.600,160.438 271.600 C 160.328 271.600,160.941 272.320,161.800 273.200 M170.200 281.200 C 171.059 282.080,171.852 282.800,171.962 282.800 C 172.072 282.800,171.459 282.080,170.600 281.200 C 169.741 280.320,168.948 279.600,168.838 279.600 C 168.728 279.600,169.341 280.320,170.200 281.200 M175.183 285.700 C 176.841 287.466,177.200 287.784,177.200 287.483 C 177.200 287.419,176.345 286.564,175.300 285.583 L 173.400 283.800 175.183 285.700 M224.378 285.900 L 223.000 287.400 224.500 286.022 C 225.896 284.738,226.184 284.400,225.878 284.400 C 225.812 284.400,225.137 285.075,224.378 285.900 M179.583 289.700 C 181.241 291.466,181.600 291.784,181.600 291.483 C 181.600 291.419,180.745 290.564,179.700 289.583 L 177.800 287.800 179.583 289.700 M219.178 290.700 L 217.800 292.200 219.300 290.822 C 220.696 289.538,220.984 289.200,220.678 289.200 C 220.612 289.200,219.937 289.875,219.178 290.700 M184.600 294.400 C 185.459 295.280,186.252 296.000,186.362 296.000 C 186.472 296.000,185.859 295.280,185.000 294.400 C 184.141 293.520,183.348 292.800,183.238 292.800 C 183.128 292.800,183.741 293.520,184.600 294.400 M210.981 298.100 L 209.400 299.800 211.100 298.219 C 212.681 296.748,212.984 296.400,212.681 296.400 C 212.616 296.400,211.851 297.165,210.981 298.100 M190.000 299.400 C 190.746 300.170,191.447 300.800,191.557 300.800 C 191.667 300.800,191.146 300.170,190.400 299.400 C 189.654 298.630,188.953 298.000,188.843 298.000 C 188.733 298.000,189.254 298.630,190.000 299.400 M206.575 302.100 L 205.400 303.400 206.700 302.225 C 207.415 301.579,208.000 300.994,208.000 300.925 C 208.000 300.616,207.670 300.888,206.575 302.100 M202.175 306.100 L 201.000 307.400 202.300 306.225 C 203.512 305.130,203.784 304.800,203.475 304.800 C 203.406 304.800,202.821 305.385,202.175 306.100 "
              stroke="none" fill="#7caccc" fill-rule="evenodd"></path>
    </g>
</svg>
